<svg width="42" height="42" viewBox="0 0 42 42" fill="none" xmlns="http://www.w3.org/2000/svg">
<path fill-rule="evenodd" clip-rule="evenodd" d="M21 16.6264C19.0894 20.0696 15.4168 22.4 11.2 22.4C5.01441 22.4 0 17.3856 0 11.2C0 5.01441 5.01441 0 11.2 0C15.4168 0 19.0894 2.33041 21 5.77359C22.9106 2.33041 26.5832 0 30.8 0C36.9856 0 42 5.01441 42 11.2C42 15.4168 39.6696 19.0894 36.2264 21C39.6696 22.9106 42 26.5832 42 30.8C42 36.9856 36.9856 42 30.8 42C24.6144 42 19.6 36.9856 19.6 30.8C19.6 26.5832 21.9304 22.9106 25.3736 21C23.538 19.9814 22.0186 18.462 21 16.6264Z" fill="#262626"/>
<circle cx="8" cy="34" r="8" fill="#262626"/>
</svg>
