<svg width="32" height="32" viewBox="0 0 32 32" fill="none" xmlns="http://www.w3.org/2000/svg">
<path fill-rule="evenodd" clip-rule="evenodd" d="M16 31.75C24.6985 31.75 31.75 24.6985 31.75 16C31.75 7.30151 24.6985 0.25 16 0.25C7.30151 0.25 0.25 7.30151 0.25 16C0.25 24.6985 7.30151 31.75 16 31.75ZM16 32C24.8366 32 32 24.8366 32 16C32 7.16344 24.8366 0 16 0C7.16344 0 0 7.16344 0 16C0 24.8366 7.16344 32 16 32Z" fill="#262626"/>
<path fill-rule="evenodd" clip-rule="evenodd" d="M21.0858 9.25H8.5V7.25H24.5V23.25H22.5V10.6642L9.58211 23.5821L8.16789 22.1679L21.0858 9.25Z" fill="#262626"/>
</svg>
